<svg xmlns="http://www.w3.org/2000/svg" xmlns:xlink="http://www.w3.org/1999/xlink" width="500" zoomAndPan="magnify" viewBox="0 0 375 374.999991" height="500" preserveAspectRatio="xMidYMid meet" version="1.0"><defs><g/></defs><g fill="#004aad" fill-opacity="1"><g transform="translate(30.767082, 236.595715)"><g><path d="M 78.9375 -102.078125 C 84.082031 -102.078125 88.804688 -101.015625 93.109375 -98.890625 C 97.410156 -96.765625 100.820312 -93.769531 103.34375 -89.90625 C 105.863281 -86.050781 107.125 -81.75 107.125 -77 C 107.125 -64.4375 101.4375 -56.523438 90.0625 -53.265625 L 90.0625 -52.671875 C 103.019531 -49.703125 109.5 -41.195312 109.5 -27.15625 C 109.5 -21.8125 108.1875 -17.085938 105.5625 -12.984375 C 102.945312 -8.878906 99.363281 -5.6875 94.8125 -3.40625 C 90.257812 -1.132812 85.265625 0 79.828125 0 L 10.984375 0 L 10.984375 -102.078125 Z M 43.765625 -62.3125 L 66.328125 -62.3125 C 68.503906 -62.3125 70.304688 -63.078125 71.734375 -64.609375 C 73.171875 -66.148438 73.890625 -68.054688 73.890625 -70.328125 L 73.890625 -71.8125 C 73.890625 -73.988281 73.144531 -75.84375 71.65625 -77.375 C 70.175781 -78.90625 68.398438 -79.671875 66.328125 -79.671875 L 43.765625 -79.671875 Z M 43.765625 -23.734375 L 68.703125 -23.734375 C 70.878906 -23.734375 72.679688 -24.5 74.109375 -26.03125 C 75.546875 -27.570312 76.265625 -29.476562 76.265625 -31.75 L 76.265625 -33.234375 C 76.265625 -35.515625 75.546875 -37.421875 74.109375 -38.953125 C 72.679688 -40.484375 70.878906 -41.25 68.703125 -41.25 L 43.765625 -41.25 Z M 43.765625 -23.734375 "/></g></g></g><g fill="#004aad" fill-opacity="1"><g transform="translate(146.192083, 236.595715)"><g><path d="M 59.640625 -103.859375 C 74.773438 -103.859375 86.742188 -100.070312 95.546875 -92.5 C 104.359375 -84.9375 108.765625 -74.132812 108.765625 -60.09375 L 77.453125 -60.09375 C 77.453125 -66.03125 75.894531 -70.726562 72.78125 -74.1875 C 69.664062 -77.644531 65.238281 -79.375 59.5 -79.375 C 52.875 -79.375 48 -77.296875 44.875 -73.140625 C 41.757812 -68.992188 40.203125 -63.207031 40.203125 -55.78125 L 40.203125 -46.296875 C 40.203125 -38.972656 41.757812 -33.207031 44.875 -29 C 48 -24.800781 52.773438 -22.703125 59.203125 -22.703125 C 65.535156 -22.703125 70.332031 -24.332031 73.59375 -27.59375 C 76.851562 -30.863281 78.484375 -35.460938 78.484375 -41.390625 L 108.765625 -41.390625 C 108.765625 -27.441406 104.484375 -16.757812 95.921875 -9.34375 C 87.367188 -1.925781 75.273438 1.78125 59.640625 1.78125 C 42.234375 1.78125 29.050781 -2.664062 20.09375 -11.5625 C 11.144531 -20.46875 6.671875 -33.628906 6.671875 -51.046875 C 6.671875 -68.453125 11.144531 -81.601562 20.09375 -90.5 C 29.050781 -99.40625 42.234375 -103.859375 59.640625 -103.859375 Z M 59.640625 -103.859375 "/></g></g></g><g fill="#004aad" fill-opacity="1"><g transform="translate(261.617084, 236.595715)"><g><path d="M 10.984375 -102.078125 L 43.765625 -102.078125 L 43.765625 -26.109375 L 96.140625 -26.109375 L 96.140625 0 L 10.984375 0 Z M 10.984375 -102.078125 "/></g></g></g></svg>